<?xml version="1.0" encoding="utf-8"?>
<!-- Generator: Adobe Illustrator 16.0.0, SVG Export Plug-In . SVG Version: 6.00 Build 0)  -->
<!DOCTYPE svg PUBLIC "-//W3C//DTD SVG 1.1//EN" "http://www.w3.org/Graphics/SVG/1.1/DTD/svg11.dtd">
<svg version="1.1" id="Layer_1" xmlns="http://www.w3.org/2000/svg" xmlns:xlink="http://www.w3.org/1999/xlink" x="0px" y="0px"
	 width="100px" height="100px" viewBox="0 0 100 100" enable-background="new 0 0 100 100" xml:space="preserve">
<path fill-rule="evenodd" clip-rule="evenodd" fill="#010101" d="M50,1.011c27.061,0,48.995,21.935,48.995,48.995
	c0,27.056-21.935,48.996-48.995,48.996S1.004,77.063,1.004,50.006C1.004,22.946,22.939,1.011,50,1.011"/>
<g>
	<defs>
		<path id="SVGID_1_" d="M81.21,58.537c-0.053,0.19-0.105,0.385-0.162,0.574c-0.457-0.493-0.915-0.947-1.113-0.976
			c-0.777-0.138-1.644-0.214-1.716-0.214c-0.073,0-0.409,0.012-0.782,0.028c-0.769,0.032-1.623,0.138-2.372,0.138
			c-0.247-0.013-0.559-0.114-0.725-0.146l-6.721-0.664c-0.146,0-0.538-0.032-0.741-0.044c-1.02-0.017-2.04-0.049-3.061-0.081
			c-0.146,0.016-0.312,0.016-0.457,0.032c-0.482-0.032-1.434-0.045-1.996,0.049c-0.263,0.044-0.559,0.028-0.83,0.061
			c-1.04,0.138-1.943,0.198-3.081,0.413c-1.996,0.182-3.983,0.368-5.972,0.534c-0.174,0.017-0.546,0.032-0.81,0.045
			c-0.182,0.016-0.166,0.032-0.283,0.032c-0.456,0-0.694,0.044-1.35,0.044c-1.439-0.028-2.798-0.012-4.192-0.655
			c-0.52-0.292-1.041-0.6-1.561-0.907c-0.044-0.028-0.055-0.028-0.091-0.077l2.107,0.143c2.37,0.242,2.178,0.368,4.787,0.274
			c0.207,0,0.454,0.013,0.664-0.016c1.028-0.109,2.308-0.154,3.356-0.259c1.21-0.143,2.498-0.215,3.789-0.413l2.19-0.279
			c1.202-0.15,2.624-0.199,3.766-0.199c4.688,0.385,6.449,0.583,10.623,1.794c0.153,0.004,0.376,0.017,0.599,0.028
			c0.928,0,2.049-0.396,3.009-0.425c0.072,0,1.182,0.105,1.968,0.242c0.429,0.062,0.736,0.49,0.976,0.6L81.21,58.537z
			 M44.486,18.013l-0.01,0.022l-0.01,0.021l-0.008,0.018l-0.012,0.024l-0.006,0.012l-0.014,0.03l-0.002,0.006l-0.019,0.039
			l-0.016,0.037l-0.002,0.004l-0.014,0.034l-0.006,0.008l-0.01,0.028l-0.006,0.014l-0.01,0.022l-0.008,0.02l-0.006,0.018
			l-0.01,0.024l-0.004,0.012l-0.012,0.03l-0.002,0.006l-0.014,0.036v0.002l-0.017,0.037v0.004l-0.012,0.035l-0.004,0.008
			l-0.008,0.028l-0.006,0.014l-0.006,0.022l-0.006,0.02l-0.006,0.019l-0.008,0.026l-0.004,0.01l-0.01,0.031l-0.002,0.008
			l-0.01,0.035v0.004l-0.01,0.037l-0.002,0.004l-0.01,0.034l-0.002,0.008l-0.008,0.03l-0.004,0.014l-0.006,0.022l-0.004,0.02
			l-0.004,0.021l-0.006,0.024l-0.004,0.012l-0.008,0.039l-0.008,0.037l-0.002,0.002l-0.008,0.041v0.002l-0.006,0.036l-0.002,0.008
			l-0.006,0.032l-0.002,0.014l-0.006,0.024l-0.002,0.018l-0.004,0.021l-0.006,0.026l-0.002,0.014l-0.004,0.032l-0.002,0.008
			l-0.004,0.036v0.004l-0.006,0.041l-0.002,0.002l-0.004,0.038l-0.002,0.008l-0.004,0.035l-0.006,0.04l-0.002,0.021l-0.002,0.022
			l-0.002,0.026l-0.002,0.017l-0.002,0.03l-0.002,0.012l-0.004,0.036v0.006l-0.004,0.042l0,0l-0.004,0.042v0.008L44,19.867v0.014
			l-0.004,0.028v0.021l-0.002,0.026l-0.002,0.026v0.019l-0.002,0.032v0.012l-0.002,0.041v0.004l-0.002,0.046l0,0l-0.002,0.047v0.008
			v0.039v0.014l-0.002,0.035v0.02l-0.002,0.026v0.028v0.02v0.035v0.014v0.042v0.006v0.051c0,1.945,1.312,3.86,2.662,4.961
			l0.057,0.044l0.061,0.047l0.061,0.046l0.063,0.044l0.066,0.049l0.067,0.046l0.067,0.044l0.071,0.049l0.073,0.046l0.073,0.047
			l0.075,0.046l0.075,0.046l0.077,0.047l0.079,0.046l0.081,0.046l0.081,0.047l0.081,0.044l0.085,0.046l0.083,0.044l0.087,0.047
			l0.087,0.042l0.087,0.044l0.087,0.044l0.089,0.042l0.091,0.045l0.089,0.04l0.091,0.042l0.091,0.043l0.093,0.04l0.093,0.041
			l0.093,0.041l0.093,0.039l0.093,0.037l0.095,0.038l0.093,0.037l0.095,0.037l0.095,0.034l0.095,0.035l0.093,0.032l0,0l0.097,0.032
			l0.095,0.033l0.093,0.028l0.093,0.03l0.097,0.028l0.093,0.028l0.093,0.024l0.093,0.026l0.093,0.022l0.093,0.022l0.089,0.022
			l0.093,0.021l0.089,0.018l0.094,0.016l0.089,0.019l0.085,0.014l0.089,0.014l0.089,0.01l0.085,0.012l0.085,0.008l0.081,0.008
			l0.085,0.004l0.081,0.004c0.028,0.002,0.053,0.004,0.081,0.004h0.081h0.021l0.02-0.002l0.024-0.002h0.021l0.021-0.002l0.021-0.002
			l0.02-0.002l0.021-0.002l0.021-0.002l0.02-0.004l0.017-0.002l0.021-0.004l0.02-0.004l0.017-0.004l0.021-0.004l0.016-0.004
			l0.021-0.006l0.017-0.004l0.02-0.004l0.017-0.006l0.017-0.006l0.016-0.006l0.017-0.006l0.016-0.006l0.017-0.006l0.017-0.008
			l0.016-0.006l0.017-0.008l0.016-0.008l0.013-0.008l0.016-0.008l0.017-0.01l0.012-0.006l0.017-0.01l0.012-0.01l0.017-0.008
			l0.012-0.012l0.013-0.01l0.012-0.01l0.017-0.01l0.012-0.012l0.013-0.01l0.012-0.012l0.013-0.012l0.012-0.012l0.012-0.014
			l0.013-0.012l0.008-0.014l0.013-0.014l0.012-0.012l0.012-0.014l0.009-0.014l0.012-0.016l0.008-0.014l0.013-0.016l0.008-0.016
			l0.009-0.017l0.012-0.016l0.008-0.016l0.009-0.016l0.008-0.018l0.008-0.019l0.008-0.016l0.009-0.02L53.036,27l0.013-0.032
			l0.012-0.03l0.013-0.035l0.008-0.032l0.012-0.034l0.013-0.035l0.008-0.034l0.012-0.035l0.009-0.034l0,0l0.008-0.037h0.004
			l0.009-0.034l0.008-0.037l0.008-0.037l0.008-0.038l0.009-0.037l0.008-0.037l0.008-0.038l0.009-0.037l0.008-0.039l0.004-0.039l0,0
			l0.008-0.038l0.004-0.039h0.005l0.004-0.039l0.008-0.039l0.004-0.041l0.004-0.038l0.009-0.039l0.004-0.039l0.004-0.039l0,0
			l0.004-0.038l0.004-0.039l0.004-0.041l0.009-0.039V25.75l0.008-0.04v-0.039l0.004-0.039l0.004-0.039l0.004-0.039l0.004-0.036
			v-0.002l0.005-0.037v-0.039l0,0l0.004-0.038v-0.037l0.004-0.039l0.004-0.037l0.004-0.036v-0.037l0.004-0.036v-0.035l0.004-0.036
			v-0.035l0.005-0.034v-0.035l0.004-0.034v-0.033v-0.034l0.004-0.033v-0.03l0.004-0.032v-0.03V24.78l0.004-0.028V24.75v-0.03v-0.016
			l0.004-0.014v-0.018v-0.016v-0.017v-0.002V24.62l0.005-0.016v-0.02v-0.019v-0.018v-0.018v-0.019v-0.02V24.47l0.004-0.018v-0.02
			v-0.019v-0.02v-0.021v-0.022v-0.021v-0.02l0.004-0.022V24.27v-0.022v-0.02v-0.022v-0.022v-0.021v-0.022v-0.022v-0.022v-0.02
			v-0.022v-0.022v-0.022l0.004-0.022v-0.022v-0.021v-0.022v-0.022v-0.022v-0.022v-0.022v-0.022V23.79v-0.022v-0.022v-0.022v-0.022
			v-0.02v-0.022v-0.022v-0.02v-0.022v-0.02v-0.021v-0.02v-0.022v-0.02V23.47v-0.02V23.43v-0.02l0.004,0.006v0.002l0.004,0.006
			l0.004,0.004l0.005,0.004l0.004,0.006l0.004,0.004l0.004,0.004l0.004,0.004v0.004l0.004,0.006l0.004,0.004v0.004l0.005,0.004
			l0.004,0.004l0.004,0.006v0.002l0.004,0.006l0.004,0.004v0.004l0.004,0.004l0.004,0.004v0.006l0.005,0.004l0.004,0.004v0.004
			l0.004,0.004l0.004,0.01l0.004,0.002v0.006l0.004,0.004v0.004l0.004,0.004v0.004l0.005,0.004l0.004,0.004v0.006l0.004,0.002v0.006
			l0.004,0.004v0.004l0.004,0.004l0.004,0.006v0.002l0.004,0.004v0.006l0.005,0.004l0.004,0.004v0.004l0.004,0.004v0.004
			l0.004,0.006l0.004,0.004v0.004l0.004,0.006v0.002l0.004,0.006l0,0l0.005,0.004l0.004,0.004v0.006l0.004,0.004l0.004,0.004v0.006
			l0.017,0.021l0.012,0.02l0.013,0.024l0.012,0.022l0,0l0.012,0.022l0.013,0.024l0.012,0.022l0.013,0.024l0.012,0.026l0.013,0.024
			l0.012,0.024l0.012,0.026l0.013,0.026l0.012,0.024l0.013,0.028l0.012,0.026l0.013,0.026l0.012,0.026l0.013,0.028l0.008,0.028
			l0.012,0.026l0.013,0.028l0.012,0.028l0.013,0.028l0.008,0.028l0.012,0.028l0.013,0.028l0.012,0.028l0.008,0.028l0.013,0.028
			l0.008,0.028l0.013,0.031l0.012,0.028l0.008,0.028l0.013,0.028l0.008,0.03l0.008,0.028l0.013,0.028l0.008,0.03l0.008,0.028
			l0.013,0.028l0.008,0.028l0.008,0.028l0.009,0.028v0.002l0.008,0.029l0.008,0.026l0.009,0.028l0.008,0.028l0.008,0.026
			l0.008,0.028l0.009,0.026l0.008,0.028l0.004,0.026l0.008,0.026l0.009,0.026l0.004,0.026l0.008,0.026l0.004,0.024l0.009,0.024
			l0.004,0.026l0.004,0.022l0.004,0.026l0.004,0.022l0.009,0.024v0.012l0.004,0.014v0.008v0.006l0.004,0.014v0.012l0.004,0.002
			v0.014v0.014l0.004,0.004v0.008l0.004,0.014v0.012v0.002v0.014l0.004,0.014v0.004v0.01l0.005,0.014v0.01v0.002l0.004,0.014v0.014
			v0.004l0.004,0.01v0.014v0.01l0.004,0.004v0.014v0.014v0.004v0.01l0.004,0.014v0.008v0.006l0.004,0.014v0.014v0.002v0.012v0.014
			l0.004,0.008v0.006v0.014v0.014v0.002l0.005,0.012v0.014v0.008v0.008v0.014v0.015v0.012l0.004,0.014v0.008v0.008v0.014v0.012
			v0.002v0.014v0.014v0.006l0.004,0.008v0.014v0.014l0,0v0.014v0.016v0.004v0.01v0.061v0.01v0.026v0.004v0.028v0.002v0.012
			l-0.004,0.024v0.004v0.014v0.014c0.611,0.205,1.19,0.838,1.332,1.33c0.348-0.454,0.704-0.909,1.057-1.364
			c0.474-0.506,0.976-0.972,1.587-1.267c0.372-0.17,0.627-0.31,1.057-0.423c0.206-0.059,0.417-0.097,0.623-0.117
			c-2.481-1.332-3.619-1.237-5.534-3.476c-0.368-0.438-0.685-0.86-1.049-1.312l-0.024-0.028l-0.008-0.008l-0.016-0.022L53.255,19.6
			l-0.008-0.012l-0.024-0.026v-0.004l-0.024-0.028l-0.004-0.006l-0.028-0.039l-0.012-0.016l-0.021-0.024l-0.004-0.006l-0.024-0.032
			l-0.004-0.002l-0.021-0.028l-0.008-0.012l-0.013-0.019l-0.016-0.02l-0.009-0.012l-0.024-0.03l0,0l-0.023-0.032l-0.009-0.01
			l-0.016-0.022l-0.013-0.018l-0.012-0.014l-0.021-0.028l-0.004-0.004l-0.021-0.033l-0.004-0.006l-0.021-0.026l-0.012-0.016
			l-0.013-0.016l-0.02-0.024l-0.004-0.01l-0.049-0.065l-0.008-0.012l-0.017-0.022l-0.017-0.022l-0.008-0.012l-0.021-0.031
			L52.7,18.855l-0.024-0.034l-0.004-0.008l-0.021-0.026l-0.012-0.018l-0.012-0.016l-0.021-0.028l-0.004-0.006l-0.024-0.034
			l-0.004-0.002l-0.021-0.031l-0.008-0.014l-0.017-0.022l-0.017-0.022l-0.008-0.012l-0.024-0.034l-0.024-0.035l-0.008-0.01
			l-0.021-0.024l-0.012-0.021l-0.012-0.014l-0.021-0.03l-0.004-0.004l-0.024-0.035l-0.004-0.006l-0.021-0.028l-0.013-0.016
			l-0.012-0.018l-0.021-0.028l-0.004-0.008l-0.028-0.032v-0.004l-0.024-0.032l-0.008-0.012l-0.017-0.022l-0.02-0.022l-0.009-0.012
			l-0.023-0.032v-0.002l-0.024-0.035l-0.009-0.008l-0.02-0.026l-0.013-0.019l-0.012-0.016l-0.021-0.03l-0.004-0.004l-0.028-0.035
			l-0.004-0.004L52,17.89l-0.012-0.014l-0.017-0.019l-0.017-0.026l-0.008-0.008l-0.024-0.035l-0.004-0.002l-0.024-0.032l-0.008-0.01
			l-0.021-0.022l-0.016-0.022l-0.009-0.012l-0.024-0.03l-0.004-0.002l-0.064-0.085l-0.017-0.014
			c-0.166-0.208-0.344-0.407-0.521-0.587c-0.624-0.619-1.262-1.17-2.136-1.437c-1.785-0.549-3.463,0.548-4.348,2.042
			C44.638,17.726,44.557,17.869,44.486,18.013z M36.854,49.946c-0.397,0.708-0.826,1.437-1.136,1.846
			c2.334-1.227,4.52-2.032,7.449-2.117c0.099,0,0.203,0.004,0.306,0.008c7.061-5.216,9.595-6.813,13.51-14.516
			c0.021-0.064,0.053-0.125,0.09-0.176c0.453-0.893,0.923-1.867,1.417-2.936c0.157-0.334,0.525-0.463,0.825-0.292
			c0.3,0.17,0.421,0.581,0.264,0.913c-0.511,1.037-1.009,2.004-1.498,2.913c-0.515,6.893,2.777,3.67,6.939,6.961
			c2.57,2.032,2.559,4.484,3.53,6.313c2.895-0.064,4.854,1.105,9.157,2.575c0.932,0.275,1.862,0.567,2.79,0.843
			c0.202,0.044,0.793,0.076,0.923,0.166c-0.304,0-0.596,0.125-0.851,0.142c-0.4,0.028-0.438,0.076-0.81,0.061
			c-0.547-0.049-1.085-0.109-1.623-0.187c-0.009-0.016-0.102-0.016-0.102-0.016c-0.061-0.013-0.146-0.028-0.206-0.045
			c-0.405-0.105-0.806-0.247-1.199-0.353c-0.506-0.182-0.991-0.385-1.493-0.583c-3.028-1.267-4.717-1.603-5.992-1.514
			c-0.064,0.004-0.13,0.008-0.19,0.016l-0.032,0.004c-0.093,0.008-0.187,0.024-0.271,0.037l-0.028,0.004
			c-0.057,0.012-0.109,0.02-0.157,0.032l-0.021,0.004c-0.956,0.194-1.753,0.619-2.923,0.988h-0.005
			c-0.117,0.04-0.242,0.077-0.368,0.113l-0.012,0.004c-0.061,0.017-0.126,0.032-0.19,0.049l-0.004,0.004
			c-0.061,0.017-0.126,0.028-0.19,0.049l-0.024,0.004c-0.064,0.016-0.134,0.032-0.202,0.049h-0.009
			c-0.064,0.016-0.129,0.028-0.193,0.044l-0.033,0.009c-0.064,0.012-0.138,0.023-0.206,0.04l-0.032,0.004
			c-0.065,0.013-0.134,0.024-0.207,0.041h-0.02c-0.073,0.016-0.15,0.028-0.228,0.036l-0.032,0.008
			c-0.081,0.013-0.157,0.024-0.238,0.037h-0.004c-0.077,0.008-0.158,0.02-0.239,0.028l-0.057,0.008
			c-0.081,0.008-0.162,0.016-0.247,0.024l-0.032,0.004c-0.073,0.008-0.15,0.016-0.23,0.021l-0.058,0.008
			c-0.089,0.008-0.178,0.012-0.267,0.016l-0.045,0.005c-0.089,0.008-0.178,0.012-0.267,0.016l-0.028,0.004
			c-0.098,0.004-0.199,0.009-0.3,0.013h-0.049c-0.105,0.004-0.206,0.008-0.315,0.008c-6.555,0.13-13.042-0.875-18.933-0.753
			l-0.063,0.008h-0.02c-0.053,0.008-0.105,0.012-0.158,0.021l-0.02,0.004c-1.893,0.247-3.553,0.898-5.041,1.619l-0.061,0.028
			l-0.118,0.057l-0.124,0.062l-0.05,0.028c-0.19,0.093-0.376,0.189-0.561,0.283l-0.008,0.004l-0.109,0.061l-0.113,0.057
			l-0.113,0.061l-0.111,0.057l-0.024,0.017l-0.087,0.045l-0.221,0.117l-0.067,0.036l-0.042,0.021l-0.109,0.061l-0.03,0.017
			l-0.077,0.04l-0.105,0.057l-0.322,0.17l-0.038,0.021l0,0c-0.118,0.061-0.233,0.121-0.348,0.183l-0.006,0.004l-0.024,0.012
			l-0.142,0.073l-0.014,0.008l-0.15,0.073l-0.016,0.012l-0.028,0.013l-0.131,0.064l-0.01,0.004l-0.016,0.008l-0.134,0.069
			l-0.036,0.016l-0.13,0.062l-0.022,0.012l-0.022,0.008l-0.138,0.065l-0.008,0.004l-0.008,0.004l-0.144,0.064l-0.022,0.009
			c-0.048,0.023-0.097,0.044-0.146,0.064l-0.022,0.008c-0.049,0.021-0.099,0.045-0.148,0.061l-0.002,0.004
			c-0.044,0.017-0.089,0.033-0.131,0.053l-0.049,0.017c-0.042,0.017-0.083,0.032-0.124,0.049l-0.042,0.016
			c-0.041,0.013-0.085,0.028-0.127,0.045h-0.008l-0.017,0.008c-0.038,0.013-0.077,0.024-0.117,0.037l-0.037,0.012
			c-0.042,0.017-0.083,0.028-0.125,0.04l-0.042,0.013c-0.041,0.012-0.083,0.024-0.124,0.036l-0.028,0.004
			c-0.041,0.013-0.079,0.021-0.117,0.032l-0.024,0.005c-0.042,0.012-0.085,0.02-0.125,0.028l-0.041,0.008
			c-0.042,0.008-0.083,0.017-0.125,0.024l-0.026,0.004c-0.041,0.008-0.079,0.012-0.117,0.021h-0.024
			c-0.042,0.008-0.085,0.012-0.127,0.02h-0.03c-0.041,0.005-0.083,0.009-0.124,0.013h-0.037c-0.039,0.004-0.075,0.004-0.113,0.008
			h-0.014l0,0l-0.028-0.004h-0.03l-0.03-0.004h-0.031l-0.032-0.004l0,0h-0.03l-0.028-0.004h-0.03l-0.031-0.005h-0.03l-0.032-0.004
			h-0.028l-0.03-0.004h-0.03h-0.031l-0.03-0.004l-0.03-0.004h-0.03l-0.061-0.004h-0.03l-0.03-0.004h-0.03l-0.03-0.005H29.82
			l-0.03-0.004h-0.03l-0.03-0.004h-0.03l-0.03-0.004l-0.061-0.004h-0.03l-0.028-0.004h-0.03l-0.033-0.004h-0.028l-0.03-0.005h-0.03
			l-0.03-0.004h-0.03l-0.031-0.004h-0.03l-0.028-0.004l-0.061-0.004h-0.03l-0.031-0.004l-0.03-0.005h-0.03l-0.03-0.004h-0.028
			l-0.032-0.004h-0.028l-0.031-0.004l-0.03-0.004h-0.03l-0.028-0.004l-0.03-0.004h-0.03l-0.031-0.005l-0.03-0.004h-0.03
			l-0.028-0.004l-0.022-0.004h-0.022l-0.022-0.004h-0.022l-0.022-0.004l-0.021-0.004h-0.002l-0.02-0.005H28.47v-0.004h-0.022
			l-0.022-0.004L28.403,55.1l-0.024-0.004l-0.022-0.004l-0.022-0.004l-0.022-0.005l-0.022-0.004l-0.024-0.004l-0.022-0.004
			l-0.022-0.004l-0.022-0.008l-0.022-0.005l-0.022-0.004h-0.002l-0.022-0.004l-0.022-0.008l-0.024-0.004l-0.022-0.004l-0.022-0.009
			l-0.024-0.004l-0.022-0.004l-0.022-0.008l-0.024-0.004l-0.022-0.009l0,0l-0.024-0.004l-0.022-0.008l-0.022-0.004L27.83,54.97
			l-0.022-0.004l0,0l-0.024-0.008l-0.022-0.004l-0.022-0.009l-0.047-0.012l-0.046-0.012l-0.024-0.009L27.6,54.905l-0.022-0.008
			l-0.024-0.004l-0.022-0.009l-0.069-0.02l-0.024-0.009l-0.046-0.012l-0.045-0.017L27.3,54.816l-0.022-0.008L27.253,54.8
			l-0.021-0.004l-0.022-0.012l-0.024-0.005l0,0l-0.021-0.008l-0.02-0.004l-0.02-0.008l-0.021-0.009l-0.02-0.008l-0.022-0.004
			l-0.018-0.008h-0.002l-0.021-0.009l-0.02-0.008l-0.022-0.008l-0.02-0.008l-0.022-0.005l-0.02-0.008l-0.022-0.012l-0.021-0.009
			l-0.022-0.008l-0.021-0.008l-0.022-0.008l-0.022-0.009l-0.02-0.008l-0.022-0.008l-0.022-0.009l-0.022-0.008l-0.021-0.008
			l-0.022-0.008l-0.022-0.013l-0.022-0.008l-0.022-0.009l-0.02-0.008l-0.022-0.008l-0.022-0.013l-0.022-0.008l-0.022-0.008
			l-0.022-0.008l-0.021-0.013l-0.022-0.008l-0.022-0.008l-0.022-0.013l-0.02-0.008l-0.022-0.008l-0.022-0.013l-0.022-0.008
			l-0.02-0.008l-0.022-0.013l-0.022-0.008l-0.02-0.008l-0.022-0.009l-0.022-0.012l-0.021-0.009l-0.022-0.008l-0.021-0.012
			l-0.02-0.009l-0.021-0.008l-0.022-0.008l-0.021-0.013l-0.02-0.008l-0.022-0.008l-0.018-0.008l-0.022-0.013l-0.02-0.008
			l-0.021-0.008l-0.018-0.009l-0.02-0.008l-0.021-0.008l-0.042-0.021l-0.041-0.017l-0.041-0.02l-0.042-0.017l-0.041-0.021
			l-0.041-0.016h-0.002L25.539,54.1l-0.041-0.017l-0.042-0.02l-0.041-0.017l-0.04-0.021l-0.043-0.016l-0.04-0.021l-0.041-0.016
			l-0.042-0.021l-0.041-0.017l-0.041-0.021l-0.041-0.016l-0.042-0.021l-0.041-0.016l-0.041-0.017l-0.042-0.021l-0.041-0.016
			l-0.042-0.021l-0.041-0.017l-0.042-0.02l-0.041-0.017l-0.041-0.017l-0.042-0.02l-0.042-0.017l-0.041-0.021l-0.041-0.016
			l-0.042-0.017l-0.041-0.016l-0.042-0.021l-0.042-0.017l-0.042-0.016l-0.041-0.017l-0.042-0.016l-0.042-0.021l-0.041-0.017
			l-0.042-0.016l-0.042-0.017l-0.042-0.016l-0.041-0.017l0,0l-0.042-0.017l-0.042-0.016h-0.002l-0.042-0.017l-0.042-0.012
			l-0.043-0.017l0,0l-0.042-0.016l-0.085-0.028l-0.044-0.017l-0.087-0.028l-0.042-0.017l-0.044-0.012
			c-0.043-0.017-0.087-0.028-0.132-0.045c-0.042-0.012-0.087-0.024-0.131-0.036l-0.051-0.017l-0.069-0.016l-0.016-0.004
			l-0.053-0.013l-0.018-0.004L22.915,53.1l-0.018-0.008l-0.055-0.013l-0.018-0.004l-0.018-0.004l-0.019-0.004l-0.018-0.004
			l-0.021-0.004l-0.018-0.005l-0.018-0.004l-0.021-0.004l-0.018-0.004l0,0l-0.018-0.004l-0.019-0.004l-0.02-0.004L22.6,53.026
			l-0.019-0.004l-0.018-0.004l-0.02-0.004l-0.021-0.004l-0.018-0.004l-0.018-0.004h-0.021l-0.018-0.005l-0.018-0.004l-0.019-0.004
			l-0.02-0.004l-0.016-0.004h-0.021l-0.018-0.004l-0.019-0.004H22.3l-0.018-0.005l-0.018-0.004h-0.019l-0.018-0.004l-0.018-0.004
			h-0.017l-0.018-0.004h-0.018H22.14V52.95h-0.019h-0.016l-0.018-0.005h-0.016h-0.016l-0.017-0.004h-0.016h-0.016H21.99
			c-0.028-0.004-0.057-0.004-0.083-0.004l-0.069-0.004h-0.022h-0.061h-0.03h-0.057h-0.03l-0.061,0.004h-0.032h-0.051l-0.055,0.004
			l-0.032,0.004h-0.002l-0.081,0.005l-0.055,0.004l-0.041,0.004l-0.039,0.004l-0.052,0.004L21.1,52.975l-0.049,0.004l-0.041,0.004
			l-0.048,0.012l-0.041,0.004h-0.002l-0.081,0.013h-0.002c-0.026,0.008-0.051,0.012-0.077,0.016l-0.006,0.005l-0.035,0.004
			l-0.052,0.012l-0.042,0.008l-0.035,0.009l-0.055,0.012l-0.032,0.008l-0.044,0.013l-0.051,0.016l-0.035,0.009h-0.002l-0.079,0.024
			l-0.059,0.02l-0.018,0.004l-0.046,0.017l-0.039,0.013l-0.042,0.016l-0.035,0.013L20,53.245l-0.024,0.009l-0.053,0.02l-0.032,0.013
			l-0.044,0.02l0,0l-0.073,0.033l-0.064,0.028l-0.01,0.004l-0.049,0.024l-0.03,0.012l-0.046,0.024l-0.028,0.017l-0.042,0.02
			l-0.037,0.021l-0.041,0.021l-0.03,0.016l-0.044,0.024l-0.069,0.041l-0.055,0.032l-0.014,0.008l-0.046,0.032l-0.026,0.013
			l-0.049,0.036l-0.018,0.012l-0.044,0.028l-0.033,0.024L18.96,53.8l-0.033,0.024c-0.054,0.036-0.109,0.077-0.16,0.121h-0.004
			l-0.059,0.049l-0.004,0.004l-0.051,0.041l-0.016,0.016l-0.048,0.041l-0.008,0.008l-0.053,0.049h-0.002
			c-0.057,0.053-0.113,0.109-0.168,0.162l-0.002,0.004L18.3,54.371l-0.004,0.004l-0.046,0.053l-0.01,0.012l-0.046,0.049
			l-0.006,0.008c-0.069,0.077-0.131,0.154-0.196,0.239l-0.006,0.004l-0.041,0.057l-0.01,0.013l-0.042,0.061l-0.002,0.004
			c-0.201,0.279-0.5,0.854-0.611,1.162c-0.401,1.072-0.585,2.04-0.182,3.251c0.154,0.502,0.382,0.947,0.664,1.348
			c0.219,0.292,0.439,0.567,0.668,0.843c0.441,0.485,0.919,0.846,1.342,1.117l-0.028-0.065c2.022,1.126,5.089,1.211,7.647-0.133
			c0.547-0.308,0.784-0.462,1.239-0.919c0.008,0,0.018-0.017,0.026-0.017l0.083-0.093c0.237-0.275,0.202-0.275,0.101-0.579
			c-0.265-0.83-0.95-2.134-1.541-2.773c-0.703-0.753-0.949-1.105-1.915-1.81c-0.12-0.094-0.247-0.154-0.32-0.264
			c0.164,0.017,0.749,0.219,0.921,0.292c0.265,0.109,0.565,0.23,0.83,0.385c0.81,0.429,1.672,1.555,2.182,2.304
			c0.288,0.421,0.544,0.979,0.634,1.542c0.024,0.004,3.967,0.255,6.773,3.064c1.887,1.656,6.978,0.988,12.063-0.016
			c5.068-1,10.068-0.956,11.938-1.032c3.247,1.17,12.843-0.883,15.547-0.028h0.028l0.049,0.023c0.134,0.049,0.247,0.098,0.34,0.154
			c0.538,0.239,1.485,0.268,1.907,0.332c0.481-0.036,0.959-0.081,1.44-0.121c-1.242,2.895-2.891,5.574-4.874,7.967H24.749
			c-1.927-2.323-3.538-4.915-4.767-7.716c-0.773-0.219-1.589-0.624-2.113-1.081c-0.089-0.089-0.089-0.105-0.182-0.183
			c-0.445-0.461-0.765-0.919-1.093-1.502c-0.146-0.247-0.354-0.721-0.455-0.996c-0.484-1.315-0.302-2.959,0.273-4.138
			c0.277-0.587,0.634-1.089,1.045-1.534c-0.134-1.19-0.201-2.4-0.201-3.624c0-15.741,11.178-28.868,26.03-31.884
			c0.063-0.178,0.133-0.356,0.21-0.534c0.247-0.549,0.739-1.267,1.168-1.719c0.081-0.057,0.162-0.127,0.245-0.212
			c0.091-0.083,0.146-0.154,0.237-0.225c0.994-0.832,2.334-1.295,3.591-1.099c0.12,0.014,0.146,0.028,0.247,0.042
			c1.757,0.354,3.166,1.83,4.218,3.271c16.126,1.678,28.753,15.134,29.121,31.615c-0.526-0.381-4.68-2.915-4.676-2.81
			c-0.268-0.109-0.522-0.251-0.777-0.381c-7.021-2.494-8.23-11.836-12.134-17.362c-0.421-0.577-0.91-1.085-1.404-1.607
			c-0.401-0.395-0.818-0.761-1.312-1.042c-1.187-0.705-2.126-0.719-3.345-0.14c-1.142,0.548-1.898,1.619-2.636,2.647
			c-0.493,0.719-0.919,1.482-1.34,2.255c-0.409,0.789-0.813,1.595-1.215,2.382c-0.097,0.21-0.182,0.381-0.291,0.591
			c-0.3,0.607-0.6,1.212-0.891,1.82c-0.102,0.182-0.202,0.409-0.292,0.605c-0.647,1.381-1.469,2.692-2.307,3.947
			c-0.32,0.438-0.638,0.86-0.958,1.282c-0.047,0.071-0.055,0.071-0.099,0.142c-0.021,0.028-0.037,0.057-0.057,0.071
			c-1.249,1.676-5.192,5.401-6.873,6.368c-1.085,0.652-3.099,0.522-3.8,1.057C37.705,49.278,37.318,49.582,36.854,49.946z"/>
	</defs>
	<clipPath id="SVGID_2_">
		<use xlink:href="#SVGID_1_"  overflow="visible"/>
	</clipPath>
	<linearGradient id="SVGID_3_" gradientUnits="userSpaceOnUse" x1="15.8384" y1="42.4863" x2="82.3351" y2="42.4863">
		<stop  offset="0" style="stop-color:#B47B2B"/>
		<stop  offset="0.21" style="stop-color:#DAB039"/>
		<stop  offset="0.33" style="stop-color:#FFE55B"/>
		<stop  offset="0.52" style="stop-color:#FEEC88"/>
		<stop  offset="0.66" style="stop-color:#FFE55B"/>
		<stop  offset="1" style="stop-color:#B47B2B"/>
	</linearGradient>
	<rect x="15.654" y="14.165" clip-path="url(#SVGID_2_)" fill="url(#SVGID_3_)" width="66.669" height="56.643"/>
</g>
<g>
	<defs>
		<polygon id="SVGID_4_" points="49.779,85.747 50.575,88.213 53.166,88.204 51.064,89.727 51.874,92.188 49.779,90.662 
			47.686,92.188 48.492,89.727 46.393,88.204 48.984,88.213 		"/>
	</defs>
	<clipPath id="SVGID_5_">
		<use xlink:href="#SVGID_4_"  overflow="visible"/>
	</clipPath>
	<linearGradient id="SVGID_6_" gradientUnits="userSpaceOnUse" x1="46.3926" y1="88.9678" x2="53.1503" y2="88.9678">
		<stop  offset="0" style="stop-color:#B47B2B"/>
		<stop  offset="0.21" style="stop-color:#DAB039"/>
		<stop  offset="0.33" style="stop-color:#FFE55B"/>
		<stop  offset="0.52" style="stop-color:#FEEC88"/>
		<stop  offset="0.66" style="stop-color:#FFE55B"/>
		<stop  offset="1" style="stop-color:#B47B2B"/>
	</linearGradient>
	<rect x="46.393" y="85.747" clip-path="url(#SVGID_5_)" fill="url(#SVGID_6_)" width="6.773" height="6.441"/>
</g>
<g>
	<defs>
		<polygon id="SVGID_7_" points="42.223,85.747 43.018,88.213 45.609,88.204 43.51,89.727 44.316,92.188 42.223,90.662 
			40.132,92.188 40.936,89.727 38.836,88.204 41.427,88.213 		"/>
	</defs>
	<clipPath id="SVGID_8_">
		<use xlink:href="#SVGID_7_"  overflow="visible"/>
	</clipPath>
	<linearGradient id="SVGID_9_" gradientUnits="userSpaceOnUse" x1="38.8481" y1="88.9678" x2="45.6059" y2="88.9678">
		<stop  offset="0" style="stop-color:#B47B2B"/>
		<stop  offset="0.21" style="stop-color:#DAB039"/>
		<stop  offset="0.33" style="stop-color:#FFE55B"/>
		<stop  offset="0.52" style="stop-color:#FEEC88"/>
		<stop  offset="0.66" style="stop-color:#FFE55B"/>
		<stop  offset="1" style="stop-color:#B47B2B"/>
	</linearGradient>
	<rect x="38.836" y="85.747" clip-path="url(#SVGID_8_)" fill="url(#SVGID_9_)" width="6.773" height="6.441"/>
</g>
<g>
	<defs>
		<polygon id="SVGID_10_" points="34.666,85.747 35.462,88.213 38.053,88.204 35.954,89.727 36.759,92.188 34.666,90.662 
			32.573,92.188 33.379,89.727 31.279,88.204 33.871,88.213 		"/>
	</defs>
	<clipPath id="SVGID_11_">
		<use xlink:href="#SVGID_10_"  overflow="visible"/>
	</clipPath>
	<linearGradient id="SVGID_12_" gradientUnits="userSpaceOnUse" x1="31.2612" y1="88.9678" x2="38.0604" y2="88.9678">
		<stop  offset="0" style="stop-color:#B47B2B"/>
		<stop  offset="0.21" style="stop-color:#DAB039"/>
		<stop  offset="0.33" style="stop-color:#FFE55B"/>
		<stop  offset="0.52" style="stop-color:#FEEC88"/>
		<stop  offset="0.66" style="stop-color:#FFE55B"/>
		<stop  offset="1" style="stop-color:#B47B2B"/>
	</linearGradient>
	<rect x="31.279" y="85.747" clip-path="url(#SVGID_11_)" fill="url(#SVGID_12_)" width="6.773" height="6.441"/>
</g>
<g>
	<defs>
		<polygon id="SVGID_13_" points="57.336,85.747 58.134,88.213 60.725,88.204 58.623,89.727 59.429,92.188 57.336,90.662 
			55.243,92.188 56.049,89.727 53.951,88.204 56.542,88.213 		"/>
	</defs>
	<clipPath id="SVGID_14_">
		<use xlink:href="#SVGID_13_"  overflow="visible"/>
	</clipPath>
	<linearGradient id="SVGID_15_" gradientUnits="userSpaceOnUse" x1="53.9395" y1="88.9678" x2="60.7386" y2="88.9678">
		<stop  offset="0" style="stop-color:#B47B2B"/>
		<stop  offset="0.21" style="stop-color:#DAB039"/>
		<stop  offset="0.33" style="stop-color:#FFE55B"/>
		<stop  offset="0.52" style="stop-color:#FEEC88"/>
		<stop  offset="0.66" style="stop-color:#FFE55B"/>
		<stop  offset="1" style="stop-color:#B47B2B"/>
	</linearGradient>
	<rect x="53.951" y="85.747" clip-path="url(#SVGID_14_)" fill="url(#SVGID_15_)" width="6.773" height="6.441"/>
</g>
<g>
	<defs>
		<polygon id="SVGID_16_" points="64.895,85.747 65.688,88.213 68.279,88.204 66.182,89.723 66.983,92.188 64.895,90.658 
			62.798,92.188 63.607,89.723 61.506,88.204 64.097,88.213 		"/>
	</defs>
	<clipPath id="SVGID_17_">
		<use xlink:href="#SVGID_16_"  overflow="visible"/>
	</clipPath>
	<linearGradient id="SVGID_18_" gradientUnits="userSpaceOnUse" x1="61.5264" y1="88.9678" x2="68.2841" y2="88.9678">
		<stop  offset="0" style="stop-color:#B47B2B"/>
		<stop  offset="0.21" style="stop-color:#DAB039"/>
		<stop  offset="0.33" style="stop-color:#FFE55B"/>
		<stop  offset="0.52" style="stop-color:#FEEC88"/>
		<stop  offset="0.66" style="stop-color:#FFE55B"/>
		<stop  offset="1" style="stop-color:#B47B2B"/>
	</linearGradient>
	<rect x="61.506" y="85.747" clip-path="url(#SVGID_17_)" fill="url(#SVGID_18_)" width="6.773" height="6.441"/>
</g>
<g>
	<defs>
		<path id="SVGID_19_" d="M26.705,76.439h0.581c0.156,0,0.308-0.017,0.456-0.053c0.147-0.036,0.275-0.089,0.385-0.162
			c0.109-0.072,0.198-0.17,0.265-0.291c0.066-0.117,0.099-0.268,0.099-0.445c0-0.304-0.104-0.53-0.312-0.685
			c-0.207-0.153-0.484-0.234-0.828-0.234h-0.646V76.439z M25.1,73.366h2.409c0.401,0,0.763,0.045,1.089,0.138
			c0.324,0.09,0.6,0.223,0.828,0.401c0.231,0.174,0.407,0.389,0.53,0.64s0.184,0.534,0.184,0.862c0,0.385-0.075,0.721-0.223,1
			c-0.147,0.283-0.346,0.519-0.597,0.704c-0.251,0.187-0.542,0.324-0.876,0.413s-0.688,0.134-1.063,0.134h-0.676v2.364H25.1V73.366z
			"/>
	</defs>
	<clipPath id="SVGID_20_">
		<use xlink:href="#SVGID_19_"  overflow="visible"/>
	</clipPath>
	<linearGradient id="SVGID_21_" gradientUnits="userSpaceOnUse" x1="25.0854" y1="76.6943" x2="74.8715" y2="76.6943">
		<stop  offset="0" style="stop-color:#B47B2B"/>
		<stop  offset="0.21" style="stop-color:#DAB039"/>
		<stop  offset="0.33" style="stop-color:#FFE55B"/>
		<stop  offset="0.52" style="stop-color:#FEEC88"/>
		<stop  offset="0.66" style="stop-color:#FFE55B"/>
		<stop  offset="1" style="stop-color:#B47B2B"/>
	</linearGradient>
	<rect x="25.1" y="73.366" clip-path="url(#SVGID_20_)" fill="url(#SVGID_21_)" width="5.04" height="6.656"/>
</g>
<g>
	<defs>
		<path id="SVGID_22_" d="M34.205,77.436h1.522l-0.253-0.806c-0.085-0.259-0.17-0.539-0.259-0.834
			c-0.087-0.296-0.164-0.567-0.227-0.813h-0.02c-0.071,0.246-0.152,0.514-0.245,0.806c-0.091,0.287-0.178,0.566-0.263,0.842
			L34.205,77.436z M34.142,73.366h1.712l2.398,6.656h-1.7l-0.456-1.425h-2.241l-0.454,1.425h-1.68L34.142,73.366z"/>
	</defs>
	<clipPath id="SVGID_23_">
		<use xlink:href="#SVGID_22_"  overflow="visible"/>
	</clipPath>
	<linearGradient id="SVGID_24_" gradientUnits="userSpaceOnUse" x1="25.085" y1="76.6943" x2="74.8747" y2="76.6943">
		<stop  offset="0" style="stop-color:#B47B2B"/>
		<stop  offset="0.21" style="stop-color:#DAB039"/>
		<stop  offset="0.33" style="stop-color:#FFE55B"/>
		<stop  offset="0.52" style="stop-color:#FEEC88"/>
		<stop  offset="0.66" style="stop-color:#FFE55B"/>
		<stop  offset="1" style="stop-color:#B47B2B"/>
	</linearGradient>
	<rect x="31.723" y="73.366" clip-path="url(#SVGID_23_)" fill="url(#SVGID_24_)" width="6.53" height="6.656"/>
</g>
<g>
	<defs>
		<polygon id="SVGID_25_" points="44.876,73.366 44.876,74.613 43.061,74.613 43.061,80.022 41.454,80.022 41.454,74.613 
			39.678,74.613 39.678,73.366 		"/>
	</defs>
	<clipPath id="SVGID_26_">
		<use xlink:href="#SVGID_25_"  overflow="visible"/>
	</clipPath>
	<linearGradient id="SVGID_27_" gradientUnits="userSpaceOnUse" x1="25.0854" y1="76.6943" x2="74.8746" y2="76.6943">
		<stop  offset="0" style="stop-color:#B47B2B"/>
		<stop  offset="0.21" style="stop-color:#DAB039"/>
		<stop  offset="0.33" style="stop-color:#FFE55B"/>
		<stop  offset="0.52" style="stop-color:#FEEC88"/>
		<stop  offset="0.66" style="stop-color:#FFE55B"/>
		<stop  offset="1" style="stop-color:#B47B2B"/>
	</linearGradient>
	<rect x="39.678" y="73.366" clip-path="url(#SVGID_26_)" fill="url(#SVGID_27_)" width="5.198" height="6.656"/>
</g>
<g>
	<defs>
		<polygon id="SVGID_28_" points="52.166,73.366 52.166,74.613 50.348,74.613 50.348,80.022 48.743,80.022 48.743,74.613 
			46.968,74.613 46.968,73.366 		"/>
	</defs>
	<clipPath id="SVGID_29_">
		<use xlink:href="#SVGID_28_"  overflow="visible"/>
	</clipPath>
	<linearGradient id="SVGID_30_" gradientUnits="userSpaceOnUse" x1="25.0859" y1="76.6943" x2="74.8751" y2="76.6943">
		<stop  offset="0" style="stop-color:#B47B2B"/>
		<stop  offset="0.21" style="stop-color:#DAB039"/>
		<stop  offset="0.33" style="stop-color:#FFE55B"/>
		<stop  offset="0.52" style="stop-color:#FEEC88"/>
		<stop  offset="0.66" style="stop-color:#FFE55B"/>
		<stop  offset="1" style="stop-color:#B47B2B"/>
	</linearGradient>
	<rect x="46.968" y="73.366" clip-path="url(#SVGID_29_)" fill="url(#SVGID_30_)" width="5.198" height="6.656"/>
</g>
<g>
	<defs>
		<path id="SVGID_31_" d="M56.064,77.436h1.522l-0.255-0.806c-0.085-0.259-0.17-0.539-0.259-0.834
			c-0.086-0.296-0.162-0.567-0.228-0.813h-0.02c-0.069,0.246-0.15,0.514-0.243,0.806c-0.093,0.287-0.179,0.566-0.264,0.842
			L56.064,77.436z M56,73.366h1.713l2.4,6.656h-1.7l-0.458-1.425h-2.238l-0.454,1.425h-1.68L56,73.366z"/>
	</defs>
	<clipPath id="SVGID_32_">
		<use xlink:href="#SVGID_31_"  overflow="visible"/>
	</clipPath>
	<linearGradient id="SVGID_33_" gradientUnits="userSpaceOnUse" x1="25.0854" y1="76.6943" x2="74.8752" y2="76.6943">
		<stop  offset="0" style="stop-color:#B47B2B"/>
		<stop  offset="0.21" style="stop-color:#DAB039"/>
		<stop  offset="0.33" style="stop-color:#FFE55B"/>
		<stop  offset="0.52" style="stop-color:#FEEC88"/>
		<stop  offset="0.66" style="stop-color:#FFE55B"/>
		<stop  offset="1" style="stop-color:#B47B2B"/>
	</linearGradient>
	<rect x="53.583" y="73.366" clip-path="url(#SVGID_32_)" fill="url(#SVGID_33_)" width="6.53" height="6.656"/>
</g>
<g>
	<defs>
		<polygon id="SVGID_34_" points="62.931,73.366 64.275,75.816 65.627,73.366 67.393,73.366 65.036,77.285 65.036,80.022 
			63.429,80.022 63.429,77.285 61.125,73.366 		"/>
	</defs>
	<clipPath id="SVGID_35_">
		<use xlink:href="#SVGID_34_"  overflow="visible"/>
	</clipPath>
	<linearGradient id="SVGID_36_" gradientUnits="userSpaceOnUse" x1="25.0825" y1="76.6943" x2="74.8759" y2="76.6943">
		<stop  offset="0" style="stop-color:#B47B2B"/>
		<stop  offset="0.21" style="stop-color:#DAB039"/>
		<stop  offset="0.33" style="stop-color:#FFE55B"/>
		<stop  offset="0.52" style="stop-color:#FEEC88"/>
		<stop  offset="0.66" style="stop-color:#FFE55B"/>
		<stop  offset="1" style="stop-color:#B47B2B"/>
	</linearGradient>
	<rect x="61.125" y="73.366" clip-path="url(#SVGID_35_)" fill="url(#SVGID_36_)" width="6.268" height="6.656"/>
</g>
<g>
	<defs>
		<path id="SVGID_37_" d="M70.846,77.436h1.522l-0.255-0.806c-0.085-0.259-0.17-0.539-0.259-0.834
			c-0.09-0.296-0.162-0.567-0.228-0.813h-0.02c-0.073,0.246-0.154,0.514-0.243,0.806c-0.093,0.287-0.183,0.566-0.268,0.842
			L70.846,77.436z M70.781,73.366h1.713l2.4,6.656H73.19l-0.454-1.425h-2.242l-0.454,1.425h-1.68L70.781,73.366z"/>
	</defs>
	<clipPath id="SVGID_38_">
		<use xlink:href="#SVGID_37_"  overflow="visible"/>
	</clipPath>
	<linearGradient id="SVGID_39_" gradientUnits="userSpaceOnUse" x1="25.0864" y1="76.6943" x2="74.8751" y2="76.6943">
		<stop  offset="0" style="stop-color:#B47B2B"/>
		<stop  offset="0.21" style="stop-color:#DAB039"/>
		<stop  offset="0.33" style="stop-color:#FFE55B"/>
		<stop  offset="0.52" style="stop-color:#FEEC88"/>
		<stop  offset="0.66" style="stop-color:#FFE55B"/>
		<stop  offset="1" style="stop-color:#B47B2B"/>
	</linearGradient>
	<rect x="68.36" y="73.366" clip-path="url(#SVGID_38_)" fill="url(#SVGID_39_)" width="6.534" height="6.656"/>
</g>
<g>
	<defs>
		<path id="SVGID_40_" d="M92.753,61.618l-1.324,3.91l-1.081-0.364l0.847-2.498l-1.203-0.404l-0.761,2.251l-1.069-0.36l0.762-2.255
			l-1.434-0.482l-0.854,2.522l-1.08-0.364l1.332-3.939L92.753,61.618z M93.684,57.598c-0.068,0.385-0.162,0.725-0.279,1.012
			c-0.117,0.288-0.251,0.539-0.404,0.749l-0.911-0.47c0.146-0.202,0.267-0.417,0.356-0.651c0.093-0.23,0.157-0.462,0.198-0.688
			c0.048-0.255,0.048-0.506,0.004-0.745c-0.041-0.242-0.138-0.465-0.283-0.668c-0.15-0.202-0.349-0.376-0.604-0.521
			c-0.251-0.143-0.566-0.252-0.939-0.316c-0.684-0.121-1.234-0.064-1.651,0.17c-0.421,0.235-0.677,0.632-0.777,1.19
			c-0.024,0.138-0.041,0.264-0.049,0.373c-0.004,0.113,0,0.202,0.017,0.263l1.323,0.234l0.17-0.955l1.085,0.194l-0.425,2.368
			l-3.134-0.559c-0.064-0.271-0.101-0.583-0.113-0.939c-0.008-0.355,0.024-0.744,0.102-1.17c0.081-0.466,0.227-0.882,0.433-1.255
			c0.207-0.372,0.47-0.685,0.79-0.931c0.324-0.251,0.692-0.426,1.113-0.522c0.417-0.098,0.883-0.102,1.393-0.009
			c0.51,0.09,0.947,0.256,1.315,0.494c0.365,0.239,0.656,0.53,0.871,0.875c0.214,0.344,0.356,0.725,0.425,1.146
			C93.777,56.687,93.769,57.132,93.684,57.598z M90.425,48.962l0.036,1.413l0.741-0.255c0.243-0.085,0.498-0.17,0.77-0.259
			c0.274-0.089,0.525-0.166,0.753-0.231v-0.02c-0.231-0.057-0.482-0.129-0.753-0.207c-0.271-0.077-0.535-0.154-0.794-0.227
			L90.425,48.962z M94.206,48.808l0.04,1.591l-6.133,2.385l-0.037-1.583l1.313-0.454l-0.053-2.085L88,48.274l-0.041-1.559
			L94.206,48.808z M93.785,42.885c0.077,0.427,0.097,0.802,0.064,1.127c-0.032,0.324-0.089,0.611-0.17,0.858l-1.134-0.138
			c0.085-0.273,0.142-0.544,0.17-0.814c0.028-0.267,0.024-0.518-0.02-0.751c-0.053-0.295-0.146-0.512-0.284-0.646
			c-0.138-0.136-0.295-0.188-0.478-0.156c-0.206,0.036-0.344,0.137-0.409,0.303c-0.068,0.164-0.125,0.411-0.174,0.739l-0.081,0.603
			c-0.036,0.241-0.093,0.468-0.174,0.68c-0.077,0.214-0.178,0.403-0.3,0.569c-0.125,0.166-0.275,0.302-0.449,0.415
			c-0.17,0.109-0.368,0.184-0.587,0.225c-0.259,0.044-0.51,0.041-0.757-0.016c-0.247-0.055-0.474-0.166-0.681-0.332
			c-0.21-0.166-0.393-0.389-0.546-0.672c-0.154-0.281-0.268-0.625-0.341-1.03c-0.068-0.382-0.089-0.753-0.072-1.111
			c0.02-0.36,0.076-0.696,0.174-1.014l1.134,0.138c-0.085,0.302-0.146,0.591-0.174,0.869c-0.033,0.279-0.021,0.564,0.032,0.854
			c0.061,0.34,0.161,0.579,0.299,0.71c0.143,0.13,0.309,0.178,0.503,0.144c0.064-0.012,0.125-0.035,0.186-0.073
			c0.061-0.039,0.113-0.1,0.166-0.185c0.053-0.087,0.098-0.2,0.134-0.344c0.036-0.144,0.068-0.324,0.097-0.54l0.081-0.504
			c0.045-0.241,0.102-0.467,0.166-0.678c0.069-0.212,0.162-0.4,0.279-0.564c0.118-0.164,0.264-0.302,0.438-0.413
			c0.174-0.109,0.389-0.188,0.644-0.235c0.268-0.046,0.519-0.041,0.766,0.019c0.243,0.061,0.466,0.174,0.664,0.342
			c0.198,0.166,0.372,0.385,0.518,0.656C93.611,42.189,93.716,42.511,93.785,42.885z M92.474,37.181
			c0.117,0.417,0.178,0.788,0.178,1.113c0,0.328-0.028,0.618-0.081,0.873l-1.142-0.024c0.057-0.281,0.085-0.557,0.085-0.826
			c0.004-0.269-0.028-0.518-0.093-0.745c-0.081-0.289-0.198-0.496-0.349-0.615c-0.149-0.122-0.312-0.158-0.489-0.107
			c-0.203,0.059-0.328,0.172-0.377,0.342c-0.053,0.172-0.085,0.423-0.102,0.753l-0.02,0.609c-0.013,0.243-0.049,0.474-0.105,0.692
			c-0.057,0.223-0.138,0.421-0.243,0.597c-0.105,0.176-0.238,0.328-0.4,0.456c-0.162,0.127-0.353,0.223-0.563,0.283
			c-0.255,0.073-0.506,0.091-0.757,0.061c-0.247-0.032-0.485-0.117-0.712-0.263c-0.223-0.144-0.43-0.348-0.607-0.613
			c-0.183-0.265-0.328-0.597-0.441-0.994c-0.105-0.373-0.166-0.737-0.183-1.097c-0.016-0.358,0.004-0.701,0.069-1.026l1.142,0.024
			c-0.053,0.308-0.085,0.601-0.085,0.882c-0.004,0.279,0.036,0.561,0.117,0.844c0.093,0.336,0.219,0.561,0.368,0.676
			c0.154,0.117,0.324,0.149,0.515,0.095c0.061-0.016,0.121-0.046,0.178-0.091c0.053-0.042,0.105-0.111,0.146-0.201
			c0.045-0.089,0.077-0.208,0.102-0.354c0.021-0.146,0.036-0.33,0.04-0.548l0.033-0.508c0.016-0.245,0.053-0.476,0.097-0.692
			c0.049-0.219,0.122-0.415,0.223-0.591c0.098-0.174,0.23-0.326,0.393-0.452c0.158-0.127,0.369-0.229,0.62-0.3
			c0.259-0.073,0.51-0.093,0.761-0.057c0.247,0.035,0.478,0.125,0.692,0.271c0.215,0.148,0.409,0.348,0.583,0.601
			C92.234,36.505,92.368,36.816,92.474,37.181z M86.048,31.618l0.648,1.261l0.555-0.553c0.182-0.18,0.376-0.369,0.583-0.567
			c0.206-0.198,0.4-0.376,0.574-0.534L88.4,31.209c-0.23,0.047-0.49,0.093-0.77,0.14c-0.275,0.047-0.546,0.093-0.81,0.14
			L86.048,31.618z M89.389,29.843l0.729,1.417l-4.494,4.808l-0.721-1.409l0.988-0.982l-0.952-1.854l-1.372,0.229l-0.713-1.391
			L89.389,29.843z M83.389,20.875l1.153,1.467l-1.295,1.867c-0.073,0.117-0.166,0.247-0.271,0.395
			c-0.105,0.146-0.219,0.295-0.332,0.449c-0.117,0.154-0.239,0.306-0.36,0.458c-0.126,0.152-0.243,0.288-0.356,0.409l0.032,0.038
			c0.154-0.089,0.328-0.178,0.522-0.265c0.194-0.091,0.381-0.174,0.563-0.255c0.183-0.081,0.353-0.154,0.511-0.219
			c0.157-0.067,0.279-0.115,0.364-0.152l2.109-0.832l1.153,1.468l-4.595,4.172l-0.858-1.097l1.575-1.376
			c0.149-0.133,0.312-0.273,0.489-0.423c0.179-0.148,0.364-0.3,0.551-0.452c0.19-0.152,0.377-0.299,0.563-0.445
			c0.187-0.147,0.353-0.279,0.511-0.403l-0.021-0.022c-0.198,0.097-0.405,0.196-0.619,0.293c-0.215,0.097-0.43,0.194-0.645,0.285
			c-0.214,0.095-0.421,0.185-0.627,0.27c-0.202,0.085-0.393,0.16-0.567,0.223l-2.174,0.832l-0.692-0.883l1.296-1.929
			c0.109-0.16,0.23-0.33,0.36-0.508s0.268-0.358,0.409-0.542c0.146-0.182,0.291-0.367,0.437-0.549
			c0.15-0.182,0.296-0.356,0.441-0.52L83,22.606c-0.162,0.134-0.341,0.275-0.535,0.425c-0.194,0.147-0.393,0.297-0.591,0.443
			c-0.194,0.146-0.385,0.285-0.57,0.417c-0.183,0.133-0.345,0.249-0.482,0.348l-1.712,1.21l-0.851-1.083L83.389,20.875z
			 M77.214,15.029l1.13,0.978l-3.291,3.802l1.85,1.603l-0.761,0.876l-2.979-2.579L77.214,15.029z M72.631,11.934l1.26,0.808
			l-2.717,4.235l2.061,1.32l-0.627,0.978l-3.316-2.127L72.631,11.934z M66.187,12.89l1.287,0.583l0.093-0.779
			c0.028-0.253,0.061-0.521,0.102-0.806c0.04-0.284,0.081-0.545,0.121-0.777l-0.02-0.008c-0.154,0.182-0.324,0.378-0.511,0.589
			c-0.19,0.208-0.372,0.413-0.551,0.613L66.187,12.89z M67.692,9.418l1.449,0.656l-0.519,6.559l-1.441-0.652l0.162-1.382
			l-1.898-0.858l-0.932,1.037l-1.425-0.646L67.692,9.418z M61.461,12.598c0.284,0.081,0.531,0.124,0.741,0.129
			c0.211,0.004,0.393-0.016,0.547-0.059l-0.008,1.109c-0.146,0.041-0.373,0.059-0.673,0.055c-0.304-0.004-0.659-0.065-1.068-0.18
			c-0.466-0.134-0.875-0.328-1.223-0.583c-0.353-0.255-0.628-0.559-0.826-0.905c-0.202-0.344-0.328-0.733-0.372-1.158
			c-0.049-0.423-0.004-0.873,0.134-1.344c0.129-0.462,0.323-0.86,0.578-1.201c0.256-0.34,0.559-0.605,0.911-0.793
			c0.349-0.19,0.741-0.304,1.179-0.34c0.437-0.037,0.898,0.016,1.393,0.156c0.413,0.117,0.74,0.253,0.979,0.407
			c0.239,0.152,0.425,0.292,0.551,0.417l-0.62,0.958c-0.121-0.124-0.271-0.245-0.453-0.364c-0.178-0.12-0.389-0.213-0.627-0.282
			c-0.256-0.071-0.502-0.101-0.741-0.093c-0.243,0.012-0.466,0.071-0.676,0.182c-0.207,0.111-0.394,0.277-0.56,0.5
			s-0.299,0.512-0.4,0.873c-0.097,0.334-0.134,0.64-0.113,0.917c0.021,0.279,0.089,0.524,0.202,0.739
			c0.117,0.212,0.275,0.391,0.47,0.536C60.979,12.416,61.202,12.525,61.461,12.598z M58.182,6.418L58.036,7.57l-1.68-0.212
			l-0.632,4.99l-1.481-0.188l0.631-4.99L53.239,6.96l0.146-1.15L58.182,6.418z M46.431,5.815l1.492-0.037l0.093,3.702
			c0.012,0.466,0.118,0.824,0.314,1.075c0.196,0.249,0.494,0.37,0.893,0.36c0.395-0.01,0.674-0.144,0.842-0.399
			c0.166-0.259,0.243-0.583,0.235-0.976L50.203,5.72l1.494-0.037l0.093,3.692c0.045,1.737-0.801,2.625-2.536,2.67
			c-0.828,0.02-1.481-0.178-1.967-0.599c-0.486-0.419-0.739-1.083-0.763-1.986L46.431,5.815z M40.436,9.896
			c0.063,0.34,0.154,0.636,0.281,0.879c0.127,0.243,0.277,0.435,0.447,0.577c0.174,0.144,0.358,0.241,0.557,0.292
			c0.2,0.051,0.405,0.057,0.617,0.02c0.207-0.038,0.395-0.115,0.563-0.23c0.168-0.118,0.306-0.271,0.413-0.463
			c0.105-0.192,0.172-0.423,0.204-0.697c0.031-0.271,0.017-0.577-0.046-0.919c-0.061-0.354-0.158-0.656-0.283-0.903
			c-0.127-0.247-0.277-0.441-0.45-0.583c-0.172-0.144-0.356-0.239-0.557-0.29c-0.198-0.052-0.405-0.059-0.617-0.02
			c-0.207,0.037-0.393,0.115-0.561,0.235c-0.168,0.119-0.303,0.279-0.409,0.478c-0.105,0.199-0.172,0.433-0.205,0.705
			C40.36,9.248,40.375,9.554,40.436,9.896z M41.407,6.448c0.439-0.079,0.858-0.079,1.259,0c0.399,0.077,0.759,0.227,1.079,0.452
			c0.318,0.223,0.589,0.516,0.81,0.882c0.223,0.367,0.378,0.798,0.468,1.295c0.085,0.482,0.085,0.931-0.006,1.346
			c-0.087,0.415-0.245,0.786-0.47,1.107c-0.225,0.324-0.512,0.591-0.864,0.804c-0.352,0.212-0.747,0.358-1.186,0.437
			c-0.438,0.079-0.856,0.079-1.255,0.004c-0.401-0.075-0.761-0.223-1.079-0.441s-0.589-0.51-0.81-0.875
			c-0.221-0.362-0.377-0.792-0.466-1.29c-0.085-0.484-0.087-0.933,0-1.352c0.085-0.417,0.241-0.79,0.468-1.118
			c0.229-0.326,0.518-0.597,0.868-0.813C40.573,6.673,40.968,6.525,41.407,6.448z M30.725,10.132l1.362-0.615l2.073,4.585
			l2.229-1.008l0.478,1.057l-3.591,1.623L30.725,10.132z M27.996,16.027l1.19-0.765l-0.601-0.5
			c-0.197-0.162-0.405-0.338-0.622-0.524c-0.219-0.188-0.413-0.362-0.587-0.524l-0.017,0.012c0.069,0.229,0.14,0.478,0.213,0.749
			c0.073,0.273,0.146,0.539,0.216,0.795L27.996,16.027z M25.903,12.874l1.34-0.86l5.221,4.008l-1.332,0.854l-1.073-0.889
			l-1.753,1.125l0.36,1.344L27.351,19.3L25.903,12.874z M18.668,18.592l1.041-0.901l2.382,0.68c0.429,0.124,0.854,0.259,1.281,0.405
			c0.425,0.148,0.79,0.298,1.089,0.454l0.014-0.012c-0.281-0.275-0.555-0.561-0.82-0.856c-0.265-0.296-0.524-0.591-0.784-0.889
			l-1.247-1.441l1.041-0.901l4.052,4.68l-1.041,0.901l-2.467-0.658c-0.405-0.107-0.8-0.232-1.185-0.378
			c-0.384-0.144-0.759-0.32-1.125-0.532l-0.014,0.012c0.294,0.292,0.569,0.579,0.822,0.86c0.253,0.283,0.51,0.573,0.767,0.87
			l1.288,1.486l-1.041,0.901L18.668,18.592z M16.705,25.782c0.273,0.212,0.537,0.37,0.794,0.467c0.257,0.097,0.496,0.142,0.72,0.134
			c0.223-0.008,0.425-0.059,0.607-0.152c0.182-0.095,0.34-0.227,0.474-0.396c0.13-0.166,0.219-0.346,0.267-0.547
			c0.049-0.2,0.049-0.407,0-0.619c-0.05-0.215-0.151-0.434-0.31-0.656c-0.158-0.225-0.375-0.443-0.646-0.658
			c-0.284-0.223-0.555-0.382-0.814-0.484c-0.259-0.099-0.5-0.146-0.725-0.138c-0.223,0.01-0.425,0.061-0.607,0.154
			c-0.182,0.095-0.34,0.227-0.474,0.397c-0.129,0.164-0.216,0.348-0.263,0.551c-0.044,0.2-0.042,0.409,0.012,0.627
			c0.055,0.216,0.16,0.437,0.318,0.662C16.217,25.349,16.432,25.565,16.705,25.782z M15.136,22.56
			c0.275-0.348,0.587-0.627,0.939-0.836c0.35-0.207,0.719-0.334,1.105-0.381c0.387-0.046,0.783-0.006,1.192,0.12
			c0.411,0.125,0.813,0.344,1.21,0.656c0.386,0.306,0.684,0.642,0.895,1.01c0.208,0.368,0.338,0.749,0.385,1.14
			c0.046,0.391,0.01,0.783-0.111,1.176c-0.122,0.391-0.32,0.763-0.595,1.114c-0.275,0.35-0.587,0.629-0.933,0.84
			c-0.35,0.208-0.715,0.338-1.099,0.387c-0.385,0.048-0.78,0.01-1.187-0.113s-0.808-0.342-1.204-0.654
			c-0.387-0.304-0.688-0.64-0.901-1.008c-0.215-0.368-0.346-0.749-0.393-1.146c-0.048-0.395-0.014-0.79,0.105-1.185
			C14.665,23.284,14.861,22.912,15.136,22.56z M12.32,26.76l5.366,3.087l-0.743,1.296l-5.369-3.087L12.32,26.76z M10.849,29.189
			l1.057,0.478l-0.696,1.541l4.585,2.073l-0.615,1.36l-4.585-2.073l-0.68,1.504l-1.057-0.478L10.849,29.189z M11.12,38.802
			l0.387-1.36l-0.781,0.022c-0.255,0.01-0.526,0.016-0.814,0.02c-0.287,0.002-0.548,0.002-0.785-0.004L9.12,37.499
			c0.205,0.125,0.423,0.267,0.658,0.423c0.235,0.154,0.465,0.306,0.688,0.449L11.12,38.802z M7.464,37.827l0.436-1.533l6.566-0.455
			l-0.433,1.522l-1.391,0.044l-0.569,2.004l1.158,0.769l-0.425,1.502L7.464,37.827z M6.108,43.598
			c0.055-0.429,0.146-0.795,0.273-1.095c0.128-0.301,0.268-0.557,0.419-0.769l1.041,0.47c-0.162,0.237-0.297,0.478-0.405,0.725
			c-0.107,0.247-0.176,0.488-0.204,0.723c-0.039,0.299-0.012,0.532,0.079,0.705c0.089,0.168,0.227,0.265,0.409,0.287
			c0.207,0.028,0.368-0.028,0.481-0.166c0.114-0.138,0.241-0.354,0.385-0.654l0.257-0.552c0.109-0.217,0.23-0.415,0.37-0.597
			c0.138-0.178,0.292-0.33,0.458-0.45c0.166-0.122,0.35-0.208,0.549-0.263c0.198-0.055,0.409-0.069,0.629-0.041
			c0.259,0.035,0.498,0.114,0.717,0.241c0.218,0.125,0.402,0.299,0.552,0.52c0.152,0.221,0.257,0.488,0.318,0.804
			c0.065,0.316,0.069,0.676,0.018,1.087c-0.05,0.383-0.137,0.745-0.263,1.081c-0.123,0.338-0.279,0.642-0.467,0.917l-1.041-0.47
			c0.172-0.261,0.314-0.52,0.427-0.777c0.111-0.257,0.186-0.532,0.225-0.824c0.042-0.344,0.016-0.601-0.077-0.767
			c-0.095-0.168-0.239-0.263-0.435-0.288c-0.065-0.008-0.131-0.004-0.198,0.014c-0.071,0.016-0.14,0.059-0.215,0.125
			c-0.075,0.067-0.152,0.162-0.23,0.288c-0.079,0.125-0.162,0.287-0.255,0.488l-0.227,0.458c-0.111,0.214-0.233,0.415-0.362,0.597
			s-0.273,0.334-0.433,0.456c-0.162,0.121-0.342,0.21-0.541,0.263c-0.198,0.052-0.427,0.064-0.687,0.032
			c-0.267-0.037-0.508-0.118-0.723-0.247c-0.214-0.129-0.393-0.304-0.532-0.522c-0.14-0.221-0.239-0.48-0.297-0.782
			C6.065,44.313,6.061,43.972,6.108,43.598z M5.847,53.205l-0.035-1.377l2.039-1.409c0.366-0.251,0.743-0.494,1.125-0.729
			c0.385-0.235,0.731-0.421,1.042-0.555v-0.021c-0.391,0.045-0.787,0.077-1.182,0.093c-0.396,0.016-0.79,0.028-1.184,0.037
			l-1.905,0.048l-0.035-1.376l6.188-0.154l0.034,1.373l-2.075,1.49c-0.342,0.247-0.69,0.47-1.044,0.676
			c-0.356,0.207-0.731,0.381-1.128,0.53v0.021c0.411-0.044,0.808-0.072,1.187-0.089c0.38-0.017,0.767-0.032,1.16-0.041L12,51.675
			l0.034,1.372L5.847,53.205z M6.725,59.217l-0.727-4.061l1.124-0.202l0.463,2.595l1.247-0.227l-0.419-2.34l1.113-0.198l0.419,2.34
			l1.488-0.264l-0.468-2.623l1.124-0.198l0.731,4.093L6.725,59.217z M7.699,63.322c-0.138-0.409-0.214-0.777-0.233-1.105
			c-0.016-0.328-0.002-0.619,0.041-0.874l1.142-0.032c-0.043,0.283-0.057,0.559-0.047,0.829c0.012,0.268,0.057,0.515,0.132,0.737
			c0.095,0.287,0.223,0.485,0.378,0.599c0.156,0.114,0.32,0.143,0.494,0.081c0.199-0.064,0.318-0.186,0.36-0.36
			c0.042-0.174,0.061-0.425,0.061-0.757l-0.01-0.607c0.002-0.242,0.024-0.478,0.071-0.7s0.118-0.425,0.215-0.607
			c0.097-0.182,0.225-0.34,0.378-0.474c0.154-0.138,0.338-0.238,0.548-0.312c0.249-0.081,0.498-0.117,0.751-0.098
			c0.251,0.021,0.494,0.094,0.725,0.228c0.23,0.133,0.443,0.327,0.637,0.583c0.194,0.255,0.358,0.578,0.49,0.972
			c0.124,0.364,0.202,0.729,0.239,1.085c0.032,0.36,0.028,0.7-0.021,1.028l-1.142,0.036c0.041-0.312,0.055-0.607,0.042-0.887
			s-0.064-0.563-0.16-0.838c-0.111-0.332-0.245-0.551-0.403-0.66c-0.158-0.109-0.33-0.13-0.516-0.068
			c-0.063,0.02-0.12,0.057-0.174,0.101c-0.053,0.045-0.099,0.113-0.138,0.207c-0.036,0.093-0.064,0.214-0.079,0.36
			c-0.019,0.146-0.022,0.328-0.019,0.551l-0.002,0.51c-0.008,0.243-0.03,0.474-0.067,0.696c-0.036,0.219-0.099,0.417-0.19,0.6
			c-0.093,0.178-0.215,0.336-0.371,0.469c-0.154,0.138-0.356,0.247-0.604,0.332c-0.255,0.085-0.506,0.118-0.757,0.094
			c-0.249-0.021-0.486-0.102-0.708-0.239c-0.223-0.134-0.425-0.324-0.607-0.57C7.974,63.982,7.822,63.679,7.699,63.322z"/>
	</defs>
	<clipPath id="SVGID_41_">
		<use xlink:href="#SVGID_40_"  overflow="visible"/>
	</clipPath>
	<linearGradient id="SVGID_42_" gradientUnits="userSpaceOnUse" x1="5.7129" y1="35.6055" x2="94.2461" y2="35.6055">
		<stop  offset="0" style="stop-color:#B47B2B"/>
		<stop  offset="0.34" style="stop-color:#DAB039"/>
		<stop  offset="1" style="stop-color:#B47B2B"/>
	</linearGradient>
	<rect x="5.713" y="5.683" clip-path="url(#SVGID_41_)" fill="url(#SVGID_42_)" width="88.533" height="59.845"/>
</g>
<path fill-rule="evenodd" clip-rule="evenodd" fill="#CD862A" d="M4.869,70.358c-0.12-0.068-0.109,0.247-0.178,0.105
	c-0.024-0.045-0.047-0.089-0.069-0.138c-0.097-0.194-0.203-0.396-0.29-0.595c-1.312-3.033-2.318-6.194-3.002-9.426
	c-0.717-3.389-1.079-6.846-1.079-10.307c0-13.241,5.21-25.82,14.571-35.178C24.181,5.46,36.761,0.25,50,0.25
	c13.238,0,25.817,5.21,35.178,14.571c9.36,9.358,14.57,21.937,14.57,35.178c0,3.591-0.389,7.174-1.161,10.68
	c-0.749,3.408-1.854,6.732-3.3,9.906c-0.021,0.045-0.134-0.093-0.158-0.048l-0.3-0.045l-0.526,0.061l-0.263,0.036l-0.349-0.161
	l0.13-0.284c1.462-3.161,2.579-6.478,3.324-9.882c0.749-3.401,1.125-6.879,1.125-10.364c0-12.848-5.057-25.051-14.138-34.133
	C75.053,6.681,62.846,1.625,50,1.625c-12.848,0-25.05,5.057-34.133,14.14c-9.083,9.083-14.14,21.285-14.14,34.133
	c0,3.36,0.351,6.716,1.047,10c0.664,3.133,1.638,6.194,2.907,9.133c0.083,0.19,0.186,0.385,0.275,0.571
	c0.099,0.194,0.202,0.396,0.292,0.595l0.127,0.288l-0.354,0.153L6.053,70.5l-1.142-0.048L4.869,70.358z"/>
<g>
	<defs>
		<path id="SVGID_43_" d="M2.545,70.424c0.095,0.076,0.118,0.089,0.328,0.097l5.423,0.283c0.087,0.004,0.18,0,0.275,0.004
			l3.17,0.057c0.763,0.065,2.375,0.013,2.743,0.049c0.123,0.013-0.061,0.024,0.146,0.024h31.208c1.466-0.004,3.459,0.04,4.838,0
			l38.392-0.102c0.688-0.028,1.405,0.037,2.085-0.012l4.813-0.223c0.13,0,0.113,0.004,0.313-0.017
			c0.421-0.04,1.023-0.036,1.174-0.161c-0.567,0-1.105-0.073-1.453-0.098l-4.199-0.134c-1.089-0.008-1.785-0.081-3.101-0.077
			l-1.089-0.032c-0.798-0.064-1.862-0.008-2.681-0.044l-15.408-0.077c-0.171,0-0.041,0.032-0.203,0.024
			c-0.202-0.004,0.073-0.024-0.17-0.024l-15.546,0.021c-0.628-0.09-1,0.081-1.867-0.017c-0.437-0.045-0.745,0.045-1.234,0
			c-0.295-0.024-0.396,0.028-0.534,0.021l-5.371-0.024c-0.158,0.004-0.2,0.024-0.279,0.024c-0.162,0.004-0.028-0.024-0.2-0.024
			h-7.089c-0.17,0-0.041,0.032-0.202,0.024c-0.203-0.004,0.069-0.024-0.174-0.024l-19.615,0.021
			c-0.087,0.004-0.117,0.004-0.216,0.004l-9.348,0.223c-0.959,0.064-2.838,0.049-3.632,0.146L2.545,70.424z"/>
	</defs>
	<clipPath id="SVGID_44_">
		<use xlink:href="#SVGID_43_"  overflow="visible"/>
	</clipPath>
	<linearGradient id="SVGID_45_" gradientUnits="userSpaceOnUse" x1="2.5449" y1="70.4355" x2="97.4531" y2="70.4355">
		<stop  offset="0" style="stop-color:#B47B2B"/>
		<stop  offset="0.21" style="stop-color:#DAB039"/>
		<stop  offset="0.33" style="stop-color:#FFE55B"/>
		<stop  offset="0.52" style="stop-color:#FEEC88"/>
		<stop  offset="0.66" style="stop-color:#FFE55B"/>
		<stop  offset="1" style="stop-color:#B47B2B"/>
	</linearGradient>
	<rect x="2.545" y="69.893" clip-path="url(#SVGID_44_)" fill="url(#SVGID_45_)" width="94.908" height="1.085"/>
</g>
<path fill-rule="evenodd" clip-rule="evenodd" fill="#CD862A" d="M12.713,82.938c0.678,0.77,1.38,1.514,2.109,2.243
	C24.181,94.54,36.761,99.751,50,99.751c13.238,0,25.817-5.211,35.178-14.57c0.729-0.729,1.429-1.474,2.109-2.243h-1.903
	c-0.408,0.441-0.825,0.874-1.251,1.3C75.053,93.322,62.846,98.374,50,98.374c-12.848,0-25.05-5.052-34.133-14.137
	c-0.427-0.426-0.844-0.858-1.253-1.3H12.713z"/>
<g>
	<defs>
		<path id="SVGID_46_" d="M4.519,83.055c0.091,0.077,0.113,0.085,0.314,0.098l5.198,0.283c0.083,0.004,0.172,0,0.265,0.004
			l3.037,0.057c0.732,0.064,2.275,0.012,2.629,0.049c0.12,0.012-0.059,0.024,0.14,0.024H46.01c1.405-0.005,3.315,0.04,4.638,0
			l36.797-0.102c0.659-0.028,1.344,0.036,2-0.012l4.606-0.219c0.126-0.004,0.109,0,0.304-0.021c0.401-0.041,0.98-0.036,1.126-0.162
			c-0.547,0-1.061-0.073-1.396-0.097l-4.021-0.134c-1.045-0.008-1.713-0.077-2.976-0.077l-1.041-0.028
			c-0.765-0.068-1.785-0.012-2.57-0.049l-14.766-0.076c-0.166,0-0.04,0.032-0.194,0.028c-0.194-0.009,0.065-0.028-0.166-0.028
			l-14.898,0.02c-0.599-0.085-0.959,0.077-1.789-0.012c-0.417-0.049-0.713,0.04-1.182,0c-0.284-0.028-0.381,0.024-0.512,0.016
			l-5.148-0.023c-0.152,0.008-0.192,0.023-0.267,0.023c-0.154,0.005-0.028-0.023-0.192-0.023h-6.795
			c-0.162,0-0.039,0.032-0.192,0.028c-0.194-0.009,0.067-0.028-0.166-0.028l-18.799,0.02c-0.085,0.004-0.113,0.004-0.208,0.004
			L9.243,82.84c-0.921,0.065-2.723,0.049-3.481,0.146L4.519,83.055z"/>
	</defs>
	<clipPath id="SVGID_47_">
		<use xlink:href="#SVGID_46_"  overflow="visible"/>
	</clipPath>
	<linearGradient id="SVGID_48_" gradientUnits="userSpaceOnUse" x1="4.5186" y1="83.0684" x2="95.4814" y2="83.0684">
		<stop  offset="0" style="stop-color:#B47B2B"/>
		<stop  offset="0.21" style="stop-color:#DAB039"/>
		<stop  offset="0.33" style="stop-color:#FFE55B"/>
		<stop  offset="0.52" style="stop-color:#FEEC88"/>
		<stop  offset="0.66" style="stop-color:#FFE55B"/>
		<stop  offset="1" style="stop-color:#B47B2B"/>
	</linearGradient>
	<rect x="4.519" y="82.528" clip-path="url(#SVGID_47_)" fill="url(#SVGID_48_)" width="90.963" height="1.081"/>
</g>
</svg>
